<?xml version="1.0" encoding="iso-8859-1"?>
<!-- Generator: Adobe Illustrator 18.1.1, SVG Export Plug-In . SVG Version: 6.00 Build 0)  -->
<svg version="1.1" id="Capa_1" xmlns="http://www.w3.org/2000/svg" xmlns:xlink="http://www.w3.org/1999/xlink" x="0px" y="0px"
	 viewBox="0 0 591.6 591.6" style="enable-background:new 0 0 591.6 591.6;" xml:space="preserve">
<g>
	<g>
		<path fill="#FFF" d="M541.008,91.392C508.368,58.752,464.712,40.8,418.2,40.8H173.4c-46.512,0-89.964,17.952-122.808,50.592
			C17.952,124.236,0,167.688,0,214.2s17.952,89.964,50.592,122.808c30.396,30.192,69.972,47.94,112.608,50.388V540.6
			c0,3.876,2.244,7.344,5.508,9.18c1.428,0.816,3.06,1.02,4.692,1.02c2.04,0,4.284-0.612,5.916-2.04L401.064,387.6H418.2
			c46.512,0,89.964-17.952,122.808-50.592c32.64-32.64,50.592-76.296,50.592-122.808S573.648,124.236,541.008,91.392z M418.2,367.2
			h-20.4c-2.244,0-4.284,0.612-5.916,2.04L183.6,520.608V377.4c0-5.712-4.488-10.2-10.2-10.2c-84.456,0-153-68.544-153-153
			s68.544-153,153-153h244.8c84.456,0,153,68.544,153,153S502.656,367.2,418.2,367.2z"/>
		<path fill="#FFF" d="M178.5,81.6c0-2.856-2.244-5.1-5.1-5.1c-75.888,0-137.7,61.812-137.7,137.7c0,2.856,2.244,5.1,5.1,5.1s5.1-2.244,5.1-5.1
			c0-70.38,57.12-127.5,127.5-127.5C176.256,86.7,178.5,84.456,178.5,81.6z"/>
		<path fill="#FFF" d="M153,163.2c-28.152,0-51,22.848-51,51s22.848,51,51,51s51-22.848,51-51S181.152,163.2,153,163.2z M153,244.8
			c-16.932,0-30.6-13.668-30.6-30.6s13.668-30.6,30.6-30.6s30.6,13.668,30.6,30.6S169.932,244.8,153,244.8z"/>
		<path fill="#FFF" d="M295.8,163.2c-28.152,0-51,22.848-51,51s22.848,51,51,51s51-22.848,51-51S323.952,163.2,295.8,163.2z M295.8,244.8
			c-16.932,0-30.6-13.668-30.6-30.6s13.668-30.6,30.6-30.6s30.6,13.668,30.6,30.6S312.732,244.8,295.8,244.8z"/>
		<path fill="#FFF" d="M438.6,163.2c-28.152,0-51,22.848-51,51s22.848,51,51,51c28.152,0,51-22.848,51-51S466.752,163.2,438.6,163.2z
			 M438.6,244.8c-16.932,0-30.6-13.668-30.6-30.6s13.668-30.6,30.6-30.6s30.6,13.668,30.6,30.6S455.532,244.8,438.6,244.8z"/>
	</g>
</g>
<g>
</g>
<g>
</g>
<g>
</g>
<g>
</g>
<g>
</g>
<g>
</g>
<g>
</g>
<g>
</g>
<g>
</g>
<g>
</g>
<g>
</g>
<g>
</g>
<g>
</g>
<g>
</g>
<g>
</g>
</svg>
